<svg t="1683020562704" class="icon" viewBox="0 0 1024 1024" version="1.1" xmlns="http://www.w3.org/2000/svg" p-id="2804" width="200" height="200"><path d="M91.97037 566.992593c-13.274074 36.977778-26.548148 73.007407-39.822222 109.985185h749.985185c14.222222-55.940741 45.511111-110.933333 89.125926-164.02963-263.585185 48.355556-530.962963 59.733333-799.288889 54.044445z m408.651852 22.755555c4.740741 0 7.585185 3.792593 7.585185 7.585185 0 4.740741-3.792593 7.585185-7.585185 7.585186-4.740741 0-7.585185-3.792593-7.585185-7.585186s2.844444-7.585185 7.585185-7.585185z m108.088889-118.518518h40.77037c3.792593 0 6.637037 2.844444 6.637038 6.637037v35.081481c0 3.792593-2.844444 6.637037-6.637038 6.637037h-40.77037c-3.792593 0-6.637037-2.844444-6.637037-6.637037v-35.081481c0-3.792593 2.844444-6.637037 6.637037-6.637037z m-430.459259 1.896296h40.77037c2.844444 0 4.740741 1.896296 4.740741 4.740741v27.496296c0 2.844444-1.896296 4.740741-4.740741 4.740741h-40.77037c-2.844444 0-4.740741-1.896296-4.740741-4.740741v-27.496296c0-1.896296 1.896296-4.740741 4.740741-4.740741z m60.681481 0h40.770371c2.844444 0 4.740741 1.896296 4.74074 4.740741v27.496296c0 2.844444-1.896296 4.740741-4.74074 4.740741h-40.770371c-2.844444 0-4.740741-1.896296-4.74074-4.740741v-27.496296c0-1.896296 2.844444-4.740741 4.74074-4.740741z m63.525926 0h40.770371c2.844444 0 4.740741 1.896296 4.74074 4.740741v27.496296c0 2.844444-1.896296 4.740741-4.74074 4.740741h-40.770371c-2.844444 0-4.740741-1.896296-4.74074-4.740741v-27.496296c-0.948148-1.896296 1.896296-4.740741 4.74074-4.740741z m122.311111 3.792593c0.948148 0 2.844444 0.948148 3.792593 0.948148 0.948148 0.948148 0.948148 1.896296 0.948148 3.792592v63.525926c0 0.948148-0.948148 2.844444-0.948148 2.844445-1.896296 1.896296-2.844444 1.896296-3.792593 1.896296h-29.392592c-0.948148 0-2.844444-0.948148-3.792593-0.948148-0.948148-0.948148-0.948148-1.896296-0.948148-2.844445v-63.525926c0-0.948148 0.948148-2.844444 0.948148-3.792592 0.948148-0.948148 1.896296-0.948148 3.792593-0.948148h29.392592v-0.948148z m57.837037-5.688889h40.770371c3.792593 0 6.637037 2.844444 6.637037 6.637037v35.081481c0 3.792593-2.844444 6.637037-6.637037 6.637037h-40.770371c-3.792593 0-6.637037-2.844444-6.637037-6.637037v-35.081481c0-3.792593 2.844444-6.637037 6.637037-6.637037z m63.525926 0H587.851852c3.792593 0 6.637037 2.844444 6.637037 6.637037v35.081481c0 3.792593-2.844444 6.637037-6.637037 6.637037h-40.770371c-3.792593 0-6.637037-2.844444-6.637037-6.637037v-35.081481c-0.948148-3.792593 1.896296-6.637037 5.688889-6.637037zM578.37037 589.748148c4.740741 0 7.585185 3.792593 7.585186 7.585185 0 4.740741-3.792593 7.585185-7.585186 7.585186-4.740741 0-7.585185-3.792593-7.585185-7.585186s2.844444-7.585185 7.585185-7.585185z m-37.925926 0c4.740741 0 7.585185 3.792593 7.585186 7.585185 0 4.740741-3.792593 7.585185-7.585186 7.585186-4.740741 0-7.585185-3.792593-7.585185-7.585186s3.792593-7.585185 7.585185-7.585185zM125.155556 437.096296h221.866666v-47.407407h-4.740741v-18.962963L322.37037 297.718519h41.718519l33.185185 65.422222h173.511111v26.548148h-18.962963l-12.325926 47.407407h208.592593v34.133334h-1.896296l6.637037 18.014814c20.859259-1.896296 41.718519-4.740741 62.577777-8.533333 20.859259-3.792593 41.718519-7.585185 62.577778-12.325926l3.792593-0.948148v37.925926l-5.688889 0.948148V474.074074c-8.533333 1.896296-17.066667 3.792593-24.651852 5.688889v30.340741l-5.688889 0.948148v-30.340741c-8.533333 1.896296-16.118519 2.844444-24.651852 4.740741v29.392592l-5.688889 0.948149v-29.392593c-8.533333 0.948148-16.118519 2.844444-24.651851 3.792593v29.392592l-5.688889 0.948148v-29.392592c-9.481481 0.948148-18.962963 2.844444-29.392593 3.792592l10.42963 28.444445c-5.688889 0.948148-10.42963 1.896296-16.118519 1.896296l-7.585185-20.859259-3.792593 22.755555-5.688888 0.948149 6.637037-34.133334-7.585186-21.807407h-53.096296v63.525926c-80.592593 9.481481-161.185185 15.17037-242.725926 18.962963 1.896296-1.896296 2.844444-4.740741 2.844445-8.533334v-63.525926c0-3.792593-0.948148-6.637037-3.792593-8.533333-1.896296-1.896296-5.688889-3.792593-8.533333-3.792593h-29.392593c-3.792593 0-6.637037 0.948148-8.533333 3.792593-1.896296 1.896296-3.792593 5.688889-3.792593 8.533333v63.525926c0 3.792593 0.948148 6.637037 3.792593 8.533334l1.896296 1.896296c-75.851852 2.844444-151.703704 3.792593-228.503704 2.844444h-14.222222c-10.42963 0-20.859259 0-31.288889-0.948148l22.755556-86.281481h-10.42963v-35.081482h-3.792592z m244.622222 0h42.666666v-47.407407H369.777778v47.407407z m59.733333 0h46.459259v-47.407407h-46.459259v47.407407z m63.525926 0h30.340741l12.325926-47.407407H493.037037v47.407407z" fill="#1296db" p-id="2805"></path></svg>