<svg t="1681621758687" class="icon" viewBox="0 0 1024 1024" version="1.1" xmlns="http://www.w3.org/2000/svg" p-id="10426" width="200" height="200"><path d="M513.232182 0c40.749313 0 73.787678 33.039347 73.787678 73.787678v23.774439l228.351939 88.62095c13.920908 5.407473 23.131859 18.847673 23.13186 33.842816v162.541068l128.298971 55.583565c19.089008 8.2721 25.969017 31.860141 14.350601 49.101858L790.203308 793.782129c-4.122315 6.157966-10.654056 10.228286-17.938252 11.460469-35.983437 6.263918-69.074779 23.452658-95.313581 49.906307-10.655037 10.707032-27.94973 10.762951-38.714643 0.134402l-1.365603-1.368546c-33.386634-33.11783-77.670621-51.40435-124.710339-51.510302h-0.375737c-46.87981 0-91.110821 18.09718-124.55043 51.029594l-3.506225 3.427742c-10.656018 10.496109-27.736845 10.496109-38.393844 0l-3.480717-3.427742c-25.220486-24.819242-56.544981-41.205495-90.575175-47.764704-7.039918-1.39111-13.225353-5.568363-17.240735-11.538952L42.846769 487.251393c-11.618415-17.268204-4.737425-40.829758 14.351582-49.074389l123.613541-53.60089V222.354863c0-14.966693 9.182502-28.406893 23.158347-33.814366L439.442541 97.188342V73.787678c0.000981-40.748332 33.040328-73.787678 73.789641-73.787678m252.714018 244.844144L512.777962 146.559003 253.367389 247.200593v105.943112l232.662613-100.828969a65.356651 65.356651 0 0 1 51.940977 0l227.976202 98.794299V244.844144z m-623.55464 648.857533c20.079855-19.600128 46.58648-30.389567 74.699061-30.442543h0.213866c28.351955 0 55.099914 10.950329 75.285721 30.842806l47.550839 46.773857c13.441181 13.253803 35.339877 13.253803 48.835015 0l47.496882-46.773857c20.239764-19.892477 46.959274-30.842806 75.31319-30.842806h0.243297c28.433381 0.053957 55.205866 11.111219 75.392654 31.138098l45.943901 45.595632c6.560191 6.505253 15.261985 10.093884 24.497462 10.093885h0.162852c9.288453-0.053957 18.017716-3.696545 24.575945-10.308731l44.205504-44.577317c20.078874-20.241726 46.852341-31.511873 75.366167-31.753208h0.881951c27.844759 0 54.136537 10.574592 74.216392 29.825471l76.465908 67.200999c15.045176 13.226334 16.546161 36.14727 3.319827 51.192446a36.329743 36.329743 0 0 1-27.281643 12.341439c-8.486947 0-17.0563-2.97156-23.935329-9.022592l-77.08298-67.791584a15.961464 15.961464 0 0 1-1.391109-1.284176c-13.654066-13.280291-35.63615-13.119401-49.049863 0.402225l-44.203542 44.576335c-20.213276 20.348659-47.119183 31.648237-75.794879 31.755171h-0.456182c-28.511863 0-55.340268-11.057262-75.581994-31.138099l-45.968427-45.595632c-13.467669-13.334248-35.421303-13.387224-48.91546-0.106933l-47.549858 46.800345c-20.187769 19.865989-46.961236 30.842806-75.287683 30.842806-28.379424 0-55.099914-10.976817-75.340659-30.842806l-47.494919-46.800345c-13.548114-13.280291-35.501748-13.226334-48.941949 0.106933-0.428713 0.429694-0.883914 0.856445-1.338134 1.258669l-75.340659 67.549268c-14.940205 13.386243-37.858198 12.156023-51.244441-2.786144-13.386243-14.912736-12.128554-37.856236 2.784182-51.24346l74.749094-66.986152z" p-id="10427" fill="#1296db"></path></svg>