<svg t="1681621820583" class="icon" viewBox="0 0 1024 1024" version="1.1" xmlns="http://www.w3.org/2000/svg" p-id="10599" width="200" height="200"><path d="M670.1056 302.6944h-129.3568l35.4816 77.5936c-73.4208 31.8464-146.4064 73.1648-219.2896 112.9472-44.4416 24.2432-91.4432 49.2288-138.3424 70.5536v-80.8704l55.1168-36.224v-69.8112l181.3504-138.3424h150.656l15.1296 39.936h59.4944l16.64 43.136-10.2656 4.5056-16.64-23.424zM238.0544 496.3328l-0.64 16.6912 291.4816-158.976-10.496-22.784L238.08 496.3584z m217.3952-219.6992l-169.1136 115.7632-0.3584 10.0608 175.7952-112.7168-6.3232-13.1072z m139.8272-13.8496h-129.2032l20.224 44.16 30.0032-19.6608h-18.0224l-9.4464-17.7408h26.5728l7.2448 13.6192 7.0912-4.7104h4.48l-4.7104-8.96h26.5728l4.736 8.96h45.568l-11.1104-15.6672z m-32.1536 54.528h26.6496l9.472 17.8176h-26.6752l-9.472-17.8176z m-204.16 210.3296c168.6272-91.9808 337.664-192.512 511.4368-164.4288-16.5376 115.584-119.168 212.6336-107.776 319.3088 7.2448 53.2992 40.832 10.8288 43.3152 93.6192H173.824l-0.8448-55.04L153.6 626.1248c68.1472-25.216 139.648-62.6176 205.3632-98.5088z m346.3936 22.656c15.8976 0 28.8-17.7408 28.8-39.808 0-21.8624-12.8512-39.6032-28.8-39.6032-16 0-28.8 17.7408-28.8 39.6032 0 22.0672 12.7488 39.808 28.8 39.808z m-127.3344-200.448h26.5216l7.7056 17.7664H585.728l-7.68-17.7408z m52.4288-32.5376l9.472 17.8176h-26.5984l-9.5232-17.8176h26.6496z" fill="#ffffff" p-id="10600"></path></svg>