<svg t="1683210839893" class="icon" viewBox="0 0 1024 1024" version="1.1" xmlns="http://www.w3.org/2000/svg" p-id="5940" width="200" height="200"><path d="M511.018667 230.4a117.333333 117.333333 0 0 1 23.466666 232.32v2.325333l118.314667 0.021334V512l-118.336-0.021333v23.466666l70.421333 0.021334v46.933333l-70.4-0.021333v210.346666c144.597333-11.008 261.013333-122.816 279.146667-265.301333l-29.525333 22.250667-28.245334-37.482667 93.696-70.613333 70.613334 93.696-37.482667 28.245333-22.528-29.888C838.016 706.730667 690.133333 840.533333 511.018667 840.533333c-178.88 0-326.613333-133.44-349.056-306.218666l-20.906667 32.213333-39.381333-25.536 63.914666-98.410667 98.410667 63.893334-25.578667 39.36-30.165333-19.562667c17.664 143.04 134.314667 255.402667 279.296 266.453333v-210.346666l-70.4 0.021333v-46.933333l70.4-0.021334v-23.466666L371.2 512v-46.933333l116.330667-0.021334v-2.346666A117.376 117.376 0 0 1 511.04 230.4z m0 46.933333a70.4 70.4 0 1 0 0 140.8 70.4 70.4 0 0 0 0-140.8z" fill="#13227a" p-id="5941"></path></svg>