<svg t="1683210815153" class="icon" viewBox="0 0 1024 1024" version="1.1" xmlns="http://www.w3.org/2000/svg" p-id="5485" width="200" height="200"><path d="M911.078027 976.959405l-122.352535-26.284861 114.443816-315.185712v-4.186969a59.548002 59.548002 0 0 0-33.030532-52.337111L766.627601 525.697203v-231.446335a56.29147 56.29147 0 0 0-57.687127-54.663204H680.562129v-22.097892a44.195783 44.195783 0 0 0-44.89361-43.265345H534.018219V86.298081h81.413283a23.260938 23.260938 0 0 0 0-46.521877H534.018219V23.260938a23.260938 23.260938 0 0 0-46.521877 0v16.515266h-81.413283a23.260938 23.260938 0 0 0 0 46.521877H487.496342v87.926346h-101.6503a44.195783 44.195783 0 0 0-44.89361 43.265345v22.097892H313.504524A56.29147 56.29147 0 0 0 254.88696 294.250868v226.794148a23.260938 23.260938 0 0 0 0 4.186969l-103.511175 54.197986a59.315392 59.315392 0 0 0-33.030532 52.337111v4.186969L230.462975 944.394091l-110.256847-23.260938a23.260938 23.260938 0 0 0-9.769594 46.521876L373.982964 1023.481281a23.260938 23.260938 0 0 0 9.769594 0l258.894242-55.593642L901.308433 1023.481281H906.19323a23.260938 23.260938 0 0 0 4.884797-46.521876zM634.040253 220.746304v42.102298a23.260938 23.260938 0 0 0 23.260938 23.260938h50.708845c6.047844 0 11.16525 3.72175 11.165251 8.141328v207.25496l-177.248349-91.415487a66.526283 66.526283 0 0 0-7.908719-3.023922v-186.087506zM301.408837 294.250868c0-4.419578 5.117406-8.141328 11.16525-8.141328h51.639283a23.260938 23.260938 0 0 0 23.260938-23.260938V220.746304H487.496342v186.087505a66.526283 66.526283 0 0 0-7.908719 3.023922L301.408837 501.505828z m336.120557 626.417066L378.867761 976.959405l-94.672019-20.934845L165.332348 628.045332a14.421782 14.421782 0 0 1 7.4435-8.141329l314.720494-162.826567v285.87693a23.260938 23.260938 0 1 0 46.521877 0V458.473092l314.720494 162.826567a14.654391 14.654391 0 0 1 7.4435 8.141329L743.366663 941.370169l-95.369847-20.469625a23.260938 23.260938 0 0 0-10.467422-0.23261z" p-id="5486" fill="#1296db"></path></svg>